<?xml version="1.0" encoding="UTF-8" standalone="no"?>
<!DOCTYPE svg PUBLIC "-//W3C//DTD SVG 1.1//EN"
 "http://www.w3.org/Graphics/SVG/1.1/DTD/svg11.dtd">
<!-- Generated by graphviz version 14.1.1 (20251213.1925)
 -->
<!-- Title: ags10et_read_test Pages: 1 -->
<svg width="281pt" height="744pt"
 viewBox="0.00 0.00 281.00 744.00" xmlns="http://www.w3.org/2000/svg" xmlns:xlink="http://www.w3.org/1999/xlink">
<g id="graph0" class="graph" transform="scale(1 1) rotate(0) translate(4 740)">
<title>ags10et_read_test</title>
<!-- Node1 -->
<g id="Node000001" class="node">
<title>Node1</title>
<g id="a_Node000001"><a xlink:title="read test">
<polygon fill="#999999" stroke="#666666" points="96.25,-402 0,-402 0,-382 96.25,-382 96.25,-402"/>
<text xml:space="preserve" text-anchor="middle" x="48.12" y="-388.5" font-family="Helvetica,sans-Serif" font-size="10.00">ags10et_read_test</text>
</a>
</g>
</g>
<!-- Node2 -->
<g id="Node000002" class="node">
<title>Node2</title>
<g id="a_Node000002"><a xlink:href="group__ags10et__base__driver.html#ga4ee02a3d6e0bbb4f9cb873606784d9dd" target="_top" xlink:title="zero point calibration using current resistance">
<polygon fill="white" stroke="#666666" points="270.5,-736 134.5,-736 134.5,-704 270.5,-704 270.5,-736"/>
<text xml:space="preserve" text-anchor="start" x="142.5" y="-722.5" font-family="Helvetica,sans-Serif" font-size="10.00">ags10et_current_resistance</text>
<text xml:space="preserve" text-anchor="middle" x="202.5" y="-710.5" font-family="Helvetica,sans-Serif" font-size="10.00">_zero_point_calibration</text>
</a>
</g>
</g>
<!-- Node1&#45;&gt;Node2 -->
<g id="edge1_Node000001_Node000002" class="edge">
<title>Node1&#45;&gt;Node2</title>
<g id="a_edge1_Node000001_Node000002"><a xlink:title=" ">
<path fill="none" stroke="#63b8ff" d="M48.77,-402.48C47.93,-444.98 50.43,-606.47 132.25,-695 132.72,-695.51 133.21,-696.02 133.71,-696.51"/>
<polygon fill="#63b8ff" stroke="#63b8ff" points="131.4,-699.14 141.39,-702.67 135.78,-693.68 131.4,-699.14"/>
</a>
</g>
</g>
<!-- Node3 -->
<g id="Node000003" class="node">
<title>Node3</title>
<g id="a_Node000003"><a xlink:href="group__ags10et__base__driver.html#ga22247966b564b3d9c73a76378dad1346" target="_top" xlink:title="close the chip">
<polygon fill="white" stroke="#666666" points="242,-686 163,-686 163,-666 242,-666 242,-686"/>
<text xml:space="preserve" text-anchor="middle" x="202.5" y="-672.5" font-family="Helvetica,sans-Serif" font-size="10.00">ags10et_deinit</text>
</a>
</g>
</g>
<!-- Node1&#45;&gt;Node3 -->
<g id="edge2_Node000001_Node000003" class="edge">
<title>Node1&#45;&gt;Node3</title>
<g id="a_edge2_Node000001_Node000003"><a xlink:title=" ">
<path fill="none" stroke="#63b8ff" d="M49.07,-402.41C49.45,-441.88 56.24,-583.7 132.25,-657 137.8,-662.35 144.7,-666.22 151.99,-669.02"/>
<polygon fill="#63b8ff" stroke="#63b8ff" points="150.78,-672.31 161.37,-671.95 152.87,-665.63 150.78,-672.31"/>
</a>
</g>
</g>
<!-- Node4 -->
<g id="Node000004" class="node">
<title>Node4</title>
<g id="a_Node000004"><a xlink:href="group__ags10et__base__driver.html#ga0dc7df495a9a39d28e7ac3d40ac7c475" target="_top" xlink:title="get resistance">
<polygon fill="white" stroke="#666666" points="262.25,-648 142.75,-648 142.75,-628 262.25,-628 262.25,-648"/>
<text xml:space="preserve" text-anchor="middle" x="202.5" y="-634.5" font-family="Helvetica,sans-Serif" font-size="10.00">ags10et_get_resistance</text>
</a>
</g>
</g>
<!-- Node1&#45;&gt;Node4 -->
<g id="edge3_Node000001_Node000004" class="edge">
<title>Node1&#45;&gt;Node4</title>
<g id="a_edge3_Node000001_Node000004"><a xlink:title=" ">
<path fill="none" stroke="#63b8ff" d="M49.69,-402.4C52.22,-438.21 65.54,-557.62 132.25,-619 133.31,-619.97 134.41,-620.9 135.55,-621.78"/>
<polygon fill="#63b8ff" stroke="#63b8ff" points="133.34,-624.52 143.68,-626.83 137.04,-618.58 133.34,-624.52"/>
</a>
</g>
</g>
<!-- Node5 -->
<g id="Node000005" class="node">
<title>Node5</title>
<g id="a_Node000005"><a xlink:href="group__ags10et__base__driver.html#gac010744f41494dbc229e12e14f3bd520" target="_top" xlink:title="get version">
<polygon fill="white" stroke="#666666" points="255.5,-610 149.5,-610 149.5,-590 255.5,-590 255.5,-610"/>
<text xml:space="preserve" text-anchor="middle" x="202.5" y="-596.5" font-family="Helvetica,sans-Serif" font-size="10.00">ags10et_get_version</text>
</a>
</g>
</g>
<!-- Node1&#45;&gt;Node5 -->
<g id="edge4_Node000001_Node000005" class="edge">
<title>Node1&#45;&gt;Node5</title>
<g id="a_edge4_Node000001_Node000005"><a xlink:title=" ">
<path fill="none" stroke="#63b8ff" d="M50.55,-402.43C55.47,-434.32 74.72,-531.34 132.25,-581 134.32,-582.79 136.54,-584.41 138.88,-585.88"/>
<polygon fill="#63b8ff" stroke="#63b8ff" points="137.17,-588.93 147.66,-590.41 140.38,-582.71 137.17,-588.93"/>
</a>
</g>
</g>
<!-- Node6 -->
<g id="Node000006" class="node">
<title>Node6</title>
<g id="a_Node000006"><a xlink:href="group__ags10et__base__driver.html#gaf57d0f1b78c77228eef4d7fc47b7f6d2" target="_top" xlink:title="get chip&#39;s information">
<polygon fill="white" stroke="#666666" points="238.25,-572 166.75,-572 166.75,-552 238.25,-552 238.25,-572"/>
<text xml:space="preserve" text-anchor="middle" x="202.5" y="-558.5" font-family="Helvetica,sans-Serif" font-size="10.00">ags10et_info</text>
</a>
</g>
</g>
<!-- Node1&#45;&gt;Node6 -->
<g id="edge5_Node000001_Node000006" class="edge">
<title>Node1&#45;&gt;Node6</title>
<g id="a_edge5_Node000001_Node000006"><a xlink:title=" ">
<path fill="none" stroke="#63b8ff" d="M51.75,-402.26C59.28,-429.59 83.61,-504.65 132.25,-543 139.06,-548.37 147.27,-552.22 155.64,-554.99"/>
<polygon fill="#63b8ff" stroke="#63b8ff" points="154.57,-558.32 165.14,-557.63 156.44,-551.58 154.57,-558.32"/>
</a>
</g>
</g>
<!-- Node7 -->
<g id="Node000007" class="node">
<title>Node7</title>
<g id="a_Node000007"><a xlink:href="group__ags10et__base__driver.html#gab86f417990499a00f74be4979e71d658" target="_top" xlink:title="initialize the chip">
<polygon fill="white" stroke="#666666" points="236.75,-534 168.25,-534 168.25,-514 236.75,-514 236.75,-534"/>
<text xml:space="preserve" text-anchor="middle" x="202.5" y="-520.5" font-family="Helvetica,sans-Serif" font-size="10.00">ags10et_init</text>
</a>
</g>
</g>
<!-- Node1&#45;&gt;Node7 -->
<g id="edge6_Node000001_Node000007" class="edge">
<title>Node1&#45;&gt;Node7</title>
<g id="a_edge6_Node000001_Node000007"><a xlink:title=" ">
<path fill="none" stroke="#63b8ff" d="M53.71,-402.23C64.23,-424.49 92.31,-477.55 132.25,-505 139.62,-510.06 148.29,-513.78 156.96,-516.51"/>
<polygon fill="#63b8ff" stroke="#63b8ff" points="155.82,-519.83 166.39,-519.07 157.65,-513.07 155.82,-519.83"/>
</a>
</g>
</g>
<!-- Node8 -->
<g id="Node000008" class="node">
<title>Node8</title>
<g id="a_Node000008"><a xlink:href="group__ags10et__interface__driver.html#ga83578dad360dd0c2fce93b3bff8ab07d" target="_top" xlink:title="interface print format data">
<polygon fill="white" stroke="#666666" points="264.88,-496 140.12,-496 140.12,-464 264.88,-464 264.88,-496"/>
<text xml:space="preserve" text-anchor="start" x="148.12" y="-482.5" font-family="Helvetica,sans-Serif" font-size="10.00">ags10et_interface_debug</text>
<text xml:space="preserve" text-anchor="middle" x="202.5" y="-470.5" font-family="Helvetica,sans-Serif" font-size="10.00">_print</text>
</a>
</g>
</g>
<!-- Node1&#45;&gt;Node8 -->
<g id="edge7_Node000001_Node000008" class="edge">
<title>Node1&#45;&gt;Node8</title>
<g id="a_edge7_Node000001_Node000008"><a xlink:title=" ">
<path fill="none" stroke="#63b8ff" d="M60.46,-402.39C75.78,-415.99 104.4,-439.88 132.25,-455 134.76,-456.36 137.35,-457.67 140,-458.94"/>
<polygon fill="#63b8ff" stroke="#63b8ff" points="138.48,-462.09 149.04,-462.95 141.32,-455.69 138.48,-462.09"/>
</a>
</g>
</g>
<!-- Node9 -->
<g id="Node000009" class="node">
<title>Node9</title>
<g id="a_Node000009"><a xlink:href="group__ags10et__interface__driver.html#ga1053be17b41e682bcbead4f07570b0de" target="_top" xlink:title="interface delay ms">
<polygon fill="white" stroke="#666666" points="272.75,-446 132.25,-446 132.25,-426 272.75,-426 272.75,-446"/>
<text xml:space="preserve" text-anchor="middle" x="202.5" y="-432.5" font-family="Helvetica,sans-Serif" font-size="10.00">ags10et_interface_delay_ms</text>
</a>
</g>
</g>
<!-- Node1&#45;&gt;Node9 -->
<g id="edge8_Node000001_Node000009" class="edge">
<title>Node1&#45;&gt;Node9</title>
<g id="a_edge8_Node000001_Node000009"><a xlink:title=" ">
<path fill="none" stroke="#63b8ff" d="M83.04,-402.4C98.09,-406.97 116.03,-412.34 132.25,-417 138.54,-418.81 145.17,-420.68 151.73,-422.5"/>
<polygon fill="#63b8ff" stroke="#63b8ff" points="150.6,-425.82 161.17,-425.11 152.47,-419.07 150.6,-425.82"/>
</a>
</g>
</g>
<!-- Node10 -->
<g id="Node000010" class="node">
<title>Node10</title>
<g id="a_Node000010"><a xlink:href="group__ags10et__interface__driver.html#ga0e323a77d8f0772a715cc93493e61c19" target="_top" xlink:title="interface iic bus deinit">
<polygon fill="white" stroke="#666666" points="256.62,-408 148.38,-408 148.38,-376 256.62,-376 256.62,-408"/>
<text xml:space="preserve" text-anchor="start" x="156.38" y="-394.5" font-family="Helvetica,sans-Serif" font-size="10.00">ags10et_interface_iic</text>
<text xml:space="preserve" text-anchor="middle" x="202.5" y="-382.5" font-family="Helvetica,sans-Serif" font-size="10.00">_deinit</text>
</a>
</g>
</g>
<!-- Node1&#45;&gt;Node10 -->
<g id="edge9_Node000001_Node000010" class="edge">
<title>Node1&#45;&gt;Node10</title>
<g id="a_edge9_Node000001_Node000010"><a xlink:title=" ">
<path fill="none" stroke="#63b8ff" d="M96.5,-392C109.27,-392 123.29,-392 136.83,-392"/>
<polygon fill="#63b8ff" stroke="#63b8ff" points="136.52,-395.5 146.52,-392 136.52,-388.5 136.52,-395.5"/>
</a>
</g>
</g>
<!-- Node11 -->
<g id="Node000011" class="node">
<title>Node11</title>
<g id="a_Node000011"><a xlink:href="group__ags10et__interface__driver.html#ga2ec434188869e1cd755ea479d227b43f" target="_top" xlink:title="interface iic bus init">
<polygon fill="white" stroke="#666666" points="265.62,-358 139.38,-358 139.38,-338 265.62,-338 265.62,-358"/>
<text xml:space="preserve" text-anchor="middle" x="202.5" y="-344.5" font-family="Helvetica,sans-Serif" font-size="10.00">ags10et_interface_iic_init</text>
</a>
</g>
</g>
<!-- Node1&#45;&gt;Node11 -->
<g id="edge10_Node000001_Node000011" class="edge">
<title>Node1&#45;&gt;Node11</title>
<g id="a_edge10_Node000001_Node000011"><a xlink:title=" ">
<path fill="none" stroke="#63b8ff" d="M83.04,-381.6C98.09,-377.03 116.03,-371.66 132.25,-367 138.54,-365.19 145.17,-363.32 151.73,-361.5"/>
<polygon fill="#63b8ff" stroke="#63b8ff" points="152.47,-364.93 161.17,-358.89 150.6,-358.18 152.47,-364.93"/>
</a>
</g>
</g>
<!-- Node12 -->
<g id="Node000012" class="node">
<title>Node12</title>
<g id="a_Node000012"><a xlink:href="group__ags10et__interface__driver.html#ga38485eb7b406b1926043df82c3757ff9" target="_top" xlink:title="interface iic bus read command">
<polygon fill="white" stroke="#666666" points="256.62,-320 148.38,-320 148.38,-288 256.62,-288 256.62,-320"/>
<text xml:space="preserve" text-anchor="start" x="156.38" y="-306.5" font-family="Helvetica,sans-Serif" font-size="10.00">ags10et_interface_iic</text>
<text xml:space="preserve" text-anchor="middle" x="202.5" y="-294.5" font-family="Helvetica,sans-Serif" font-size="10.00">_read_cmd</text>
</a>
</g>
</g>
<!-- Node1&#45;&gt;Node12 -->
<g id="edge11_Node000001_Node000012" class="edge">
<title>Node1&#45;&gt;Node12</title>
<g id="a_edge11_Node000001_Node000012"><a xlink:title=" ">
<path fill="none" stroke="#63b8ff" d="M60.46,-381.61C75.78,-368.01 104.4,-344.12 132.25,-329 134.76,-327.64 137.35,-326.33 140,-325.06"/>
<polygon fill="#63b8ff" stroke="#63b8ff" points="141.32,-328.31 149.04,-321.05 138.48,-321.91 141.32,-328.31"/>
</a>
</g>
</g>
<!-- Node13 -->
<g id="Node000013" class="node">
<title>Node13</title>
<g id="a_Node000013"><a xlink:href="group__ags10et__interface__driver.html#gaa61bdafab886f6369c2fc93b866b3911" target="_top" xlink:title="interface iic bus write">
<polygon fill="white" stroke="#666666" points="256.62,-270 148.38,-270 148.38,-238 256.62,-238 256.62,-270"/>
<text xml:space="preserve" text-anchor="start" x="156.38" y="-256.5" font-family="Helvetica,sans-Serif" font-size="10.00">ags10et_interface_iic</text>
<text xml:space="preserve" text-anchor="middle" x="202.5" y="-244.5" font-family="Helvetica,sans-Serif" font-size="10.00">_write</text>
</a>
</g>
</g>
<!-- Node1&#45;&gt;Node13 -->
<g id="edge12_Node000001_Node000013" class="edge">
<title>Node1&#45;&gt;Node13</title>
<g id="a_edge12_Node000001_Node000013"><a xlink:title=" ">
<path fill="none" stroke="#63b8ff" d="M54.04,-381.67C65.02,-359.67 93.62,-307.86 132.25,-279 134.21,-277.54 136.25,-276.16 138.37,-274.85"/>
<polygon fill="#63b8ff" stroke="#63b8ff" points="139.59,-278.18 146.69,-270.32 136.24,-272.03 139.59,-278.18"/>
</a>
</g>
</g>
<!-- Node14 -->
<g id="Node000014" class="node">
<title>Node14</title>
<g id="a_Node000014"><a xlink:href="group__ags10et__interface__driver.html#gadfb584ed2d2cd797e3d0879d1fe34e55" target="_top" xlink:title="interface iic bus write command">
<polygon fill="white" stroke="#666666" points="256.62,-220 148.38,-220 148.38,-188 256.62,-188 256.62,-220"/>
<text xml:space="preserve" text-anchor="start" x="156.38" y="-206.5" font-family="Helvetica,sans-Serif" font-size="10.00">ags10et_interface_iic</text>
<text xml:space="preserve" text-anchor="middle" x="202.5" y="-194.5" font-family="Helvetica,sans-Serif" font-size="10.00">_write_cmd</text>
</a>
</g>
</g>
<!-- Node1&#45;&gt;Node14 -->
<g id="edge13_Node000001_Node000014" class="edge">
<title>Node1&#45;&gt;Node14</title>
<g id="a_edge13_Node000001_Node000014"><a xlink:title=" ">
<path fill="none" stroke="#63b8ff" d="M51.57,-381.57C58.79,-353 82.7,-272.71 132.25,-229 134.16,-227.32 136.19,-225.74 138.31,-224.28"/>
<polygon fill="#63b8ff" stroke="#63b8ff" points="139.98,-227.35 146.8,-219.25 136.41,-221.33 139.98,-227.35"/>
</a>
</g>
</g>
<!-- Node15 -->
<g id="Node000015" class="node">
<title>Node15</title>
<g id="a_Node000015"><a xlink:href="group__ags10et__base__driver.html#gaac8c5e06bf304e602a73b9bd17cc542e" target="_top" xlink:title="modify slave address">
<polygon fill="white" stroke="#666666" points="259.25,-170 145.75,-170 145.75,-138 259.25,-138 259.25,-170"/>
<text xml:space="preserve" text-anchor="start" x="153.75" y="-156.5" font-family="Helvetica,sans-Serif" font-size="10.00">ags10et_modify_slave</text>
<text xml:space="preserve" text-anchor="middle" x="202.5" y="-144.5" font-family="Helvetica,sans-Serif" font-size="10.00">_address</text>
</a>
</g>
</g>
<!-- Node1&#45;&gt;Node15 -->
<g id="edge14_Node000001_Node000015" class="edge">
<title>Node1&#45;&gt;Node15</title>
<g id="a_edge14_Node000001_Node000015"><a xlink:title=" ">
<path fill="none" stroke="#63b8ff" d="M50.14,-381.94C54.04,-348.32 71.13,-238.57 132.25,-179 133.45,-177.83 134.71,-176.71 136.02,-175.65"/>
<polygon fill="#63b8ff" stroke="#63b8ff" points="137.74,-178.71 144.04,-170.2 133.8,-172.93 137.74,-178.71"/>
</a>
</g>
</g>
<!-- Node16 -->
<g id="Node000016" class="node">
<title>Node16</title>
<g id="a_Node000016"><a xlink:href="group__ags10et__base__driver.html#ga64380e0f643903d824a3ddfadfe40954" target="_top" xlink:title="read ethanol">
<polygon fill="white" stroke="#666666" points="258.12,-120 146.88,-120 146.88,-100 258.12,-100 258.12,-120"/>
<text xml:space="preserve" text-anchor="middle" x="202.5" y="-106.5" font-family="Helvetica,sans-Serif" font-size="10.00">ags10et_read_ethanol</text>
</a>
</g>
</g>
<!-- Node1&#45;&gt;Node16 -->
<g id="edge15_Node000001_Node000016" class="edge">
<title>Node1&#45;&gt;Node16</title>
<g id="a_edge15_Node000001_Node000016"><a xlink:title=" ">
<path fill="none" stroke="#63b8ff" d="M49.1,-381.66C49.57,-342.49 56.69,-201.72 132.25,-129 133.67,-127.63 135.18,-126.36 136.76,-125.18"/>
<polygon fill="#63b8ff" stroke="#63b8ff" points="138.42,-128.27 145.2,-120.13 134.82,-122.26 138.42,-128.27"/>
</a>
</g>
</g>
<!-- Node17 -->
<g id="Node000017" class="node">
<title>Node17</title>
<g id="a_Node000017"><a xlink:href="group__ags10et__base__driver.html#ga192f8a2bf8b9022f39e1d42191670aba" target="_top" xlink:title="reset zero point calibration">
<polygon fill="white" stroke="#666666" points="253.25,-82 151.75,-82 151.75,-50 253.25,-50 253.25,-82"/>
<text xml:space="preserve" text-anchor="start" x="159.75" y="-68.5" font-family="Helvetica,sans-Serif" font-size="10.00">ags10et_reset_zero</text>
<text xml:space="preserve" text-anchor="middle" x="202.5" y="-56.5" font-family="Helvetica,sans-Serif" font-size="10.00">_point_calibration</text>
</a>
</g>
</g>
<!-- Node1&#45;&gt;Node17 -->
<g id="edge16_Node000001_Node000017" class="edge">
<title>Node1&#45;&gt;Node17</title>
<g id="a_edge16_Node000001_Node000017"><a xlink:title=" ">
<path fill="none" stroke="#63b8ff" d="M48.8,-381.59C48.04,-339.36 50.85,-178.92 132.25,-91 134.98,-88.05 138.09,-85.45 141.43,-83.15"/>
<polygon fill="#63b8ff" stroke="#63b8ff" points="143.13,-86.21 150.08,-78.21 139.66,-80.13 143.13,-86.21"/>
</a>
</g>
</g>
<!-- Node18 -->
<g id="Node000018" class="node">
<title>Node18</title>
<g id="a_Node000018"><a xlink:href="group__ags10et__base__driver.html#gafad68c4e70f4bab0663c86e0874d3188" target="_top" xlink:title="zero point calibration">
<polygon fill="white" stroke="#666666" points="252.88,-32 152.12,-32 152.12,0 252.88,0 252.88,-32"/>
<text xml:space="preserve" text-anchor="start" x="160.12" y="-18.5" font-family="Helvetica,sans-Serif" font-size="10.00">ags10et_zero_point</text>
<text xml:space="preserve" text-anchor="middle" x="202.5" y="-6.5" font-family="Helvetica,sans-Serif" font-size="10.00">_calibration</text>
</a>
</g>
</g>
<!-- Node1&#45;&gt;Node18 -->
<g id="edge17_Node000001_Node000018" class="edge">
<title>Node1&#45;&gt;Node18</title>
<g id="a_edge17_Node000001_Node000018"><a xlink:title=" ">
<path fill="none" stroke="#63b8ff" d="M50.26,-381.55C56.17,-329 84.93,-94.04 132.25,-41 135.1,-37.81 138.38,-35.02 141.95,-32.59"/>
<polygon fill="#63b8ff" stroke="#63b8ff" points="143.61,-35.67 150.59,-27.7 140.16,-29.58 143.61,-35.67"/>
</a>
</g>
</g>
</g>
</svg>
