<?xml version="1.0" encoding="UTF-8" standalone="no"?>
<!DOCTYPE svg PUBLIC "-//W3C//DTD SVG 1.1//EN"
 "http://www.w3.org/Graphics/SVG/1.1/DTD/svg11.dtd">
<!-- Generated by graphviz version 13.1.0 (20250701.0955)
 -->
<!-- Title: ags10et_basic_init Pages: 1 -->
<svg width="282pt" height="354pt"
 viewBox="0.00 0.00 282.00 354.00" xmlns="http://www.w3.org/2000/svg" xmlns:xlink="http://www.w3.org/1999/xlink">
<g id="graph0" class="graph" transform="scale(1 1) rotate(0) translate(4 350)">
<title>ags10et_basic_init</title>
<!-- Node1 -->
<g id="Node000001" class="node">
<title>Node1</title>
<g id="a_Node000001"><a xlink:title="basic example init">
<polygon fill="#999999" stroke="#666666" points="97,-192 0,-192 0,-172 97,-172 97,-192"/>
<text xml:space="preserve" text-anchor="middle" x="48.5" y="-178.5" font-family="Helvetica,sans-Serif" font-size="10.00">ags10et_basic_init</text>
</a>
</g>
</g>
<!-- Node2 -->
<g id="Node000002" class="node">
<title>Node2</title>
<g id="a_Node000002"><a xlink:href="group__ags10et__base__driver.html#gab86f417990499a00f74be4979e71d658" target="_top" xlink:title="initialize the chip">
<polygon fill="white" stroke="#666666" points="237.5,-346 169,-346 169,-326 237.5,-326 237.5,-346"/>
<text xml:space="preserve" text-anchor="middle" x="203.25" y="-332.5" font-family="Helvetica,sans-Serif" font-size="10.00">ags10et_init</text>
</a>
</g>
</g>
<!-- Node1&#45;&gt;Node2 -->
<g id="edge1_Node000001_Node000002" class="edge">
<title>Node1&#45;&gt;Node2</title>
<g id="a_edge1_Node000001_Node000002"><a xlink:title=" ">
<path fill="none" stroke="#63b8ff" d="M52.86,-192.28C61.69,-217.59 87.99,-283.32 133,-317 140.23,-322.41 148.91,-326.28 157.64,-329.05"/>
<polygon fill="#63b8ff" stroke="#63b8ff" points="156.6,-332.39 167.17,-331.6 158.42,-325.63 156.6,-332.39"/>
</a>
</g>
</g>
<!-- Node3 -->
<g id="Node000003" class="node">
<title>Node3</title>
<g id="a_Node000003"><a xlink:href="group__ags10et__interface__driver.html#ga83578dad360dd0c2fce93b3bff8ab07d" target="_top" xlink:title="interface print format data">
<polygon fill="white" stroke="#666666" points="265.62,-308 140.88,-308 140.88,-276 265.62,-276 265.62,-308"/>
<text xml:space="preserve" text-anchor="start" x="148.88" y="-294.5" font-family="Helvetica,sans-Serif" font-size="10.00">ags10et_interface_debug</text>
<text xml:space="preserve" text-anchor="middle" x="203.25" y="-282.5" font-family="Helvetica,sans-Serif" font-size="10.00">_print</text>
</a>
</g>
</g>
<!-- Node1&#45;&gt;Node3 -->
<g id="edge2_Node000001_Node000003" class="edge">
<title>Node1&#45;&gt;Node3</title>
<g id="a_edge2_Node000001_Node000003"><a xlink:title=" ">
<path fill="none" stroke="#63b8ff" d="M57.12,-192.36C70.58,-210 100.27,-246 133,-267 134.86,-268.19 136.78,-269.33 138.74,-270.43"/>
<polygon fill="#63b8ff" stroke="#63b8ff" points="137.04,-273.49 147.54,-274.86 140.18,-267.24 137.04,-273.49"/>
</a>
</g>
</g>
<!-- Node4 -->
<g id="Node000004" class="node">
<title>Node4</title>
<g id="a_Node000004"><a xlink:href="group__ags10et__interface__driver.html#ga1053be17b41e682bcbead4f07570b0de" target="_top" xlink:title="interface delay ms">
<polygon fill="white" stroke="#666666" points="273.5,-258 133,-258 133,-238 273.5,-238 273.5,-258"/>
<text xml:space="preserve" text-anchor="middle" x="203.25" y="-244.5" font-family="Helvetica,sans-Serif" font-size="10.00">ags10et_interface_delay_ms</text>
</a>
</g>
</g>
<!-- Node1&#45;&gt;Node4 -->
<g id="edge3_Node000001_Node000004" class="edge">
<title>Node1&#45;&gt;Node4</title>
<g id="a_edge3_Node000001_Node000004"><a xlink:title=" ">
<path fill="none" stroke="#63b8ff" d="M65.23,-192.4C81.59,-202.85 108.23,-218.81 133,-229 137.53,-230.86 142.31,-232.6 147.14,-234.21"/>
<polygon fill="#63b8ff" stroke="#63b8ff" points="145.71,-237.43 156.3,-237.08 147.8,-230.75 145.71,-237.43"/>
</a>
</g>
</g>
<!-- Node5 -->
<g id="Node000005" class="node">
<title>Node5</title>
<g id="a_Node000005"><a xlink:href="group__ags10et__interface__driver.html#ga0e323a77d8f0772a715cc93493e61c19" target="_top" xlink:title="interface iic bus deinit">
<polygon fill="white" stroke="#666666" points="257.38,-220 149.12,-220 149.12,-188 257.38,-188 257.38,-220"/>
<text xml:space="preserve" text-anchor="start" x="157.12" y="-206.5" font-family="Helvetica,sans-Serif" font-size="10.00">ags10et_interface_iic</text>
<text xml:space="preserve" text-anchor="middle" x="203.25" y="-194.5" font-family="Helvetica,sans-Serif" font-size="10.00">_deinit</text>
</a>
</g>
</g>
<!-- Node1&#45;&gt;Node5 -->
<g id="edge4_Node000001_Node000005" class="edge">
<title>Node1&#45;&gt;Node5</title>
<g id="a_edge4_Node000001_Node000005"><a xlink:title=" ">
<path fill="none" stroke="#63b8ff" d="M97.41,-188.9C110.13,-190.73 124.07,-192.74 137.52,-194.68"/>
<polygon fill="#63b8ff" stroke="#63b8ff" points="136.76,-198.1 147.16,-196.07 137.76,-191.18 136.76,-198.1"/>
</a>
</g>
</g>
<!-- Node6 -->
<g id="Node000006" class="node">
<title>Node6</title>
<g id="a_Node000006"><a xlink:href="group__ags10et__interface__driver.html#ga2ec434188869e1cd755ea479d227b43f" target="_top" xlink:title="interface iic bus init">
<polygon fill="white" stroke="#666666" points="266.38,-170 140.12,-170 140.12,-150 266.38,-150 266.38,-170"/>
<text xml:space="preserve" text-anchor="middle" x="203.25" y="-156.5" font-family="Helvetica,sans-Serif" font-size="10.00">ags10et_interface_iic_init</text>
</a>
</g>
</g>
<!-- Node1&#45;&gt;Node6 -->
<g id="edge5_Node000001_Node000006" class="edge">
<title>Node1&#45;&gt;Node6</title>
<g id="a_edge5_Node000001_Node000006"><a xlink:title=" ">
<path fill="none" stroke="#63b8ff" d="M97.41,-175.1C107.24,-173.68 117.81,-172.16 128.31,-170.65"/>
<polygon fill="#63b8ff" stroke="#63b8ff" points="128.75,-174.12 138.15,-169.23 127.75,-167.19 128.75,-174.12"/>
</a>
</g>
</g>
<!-- Node7 -->
<g id="Node000007" class="node">
<title>Node7</title>
<g id="a_Node000007"><a xlink:href="group__ags10et__interface__driver.html#ga38485eb7b406b1926043df82c3757ff9" target="_top" xlink:title="interface iic bus read command">
<polygon fill="white" stroke="#666666" points="257.38,-132 149.12,-132 149.12,-100 257.38,-100 257.38,-132"/>
<text xml:space="preserve" text-anchor="start" x="157.12" y="-118.5" font-family="Helvetica,sans-Serif" font-size="10.00">ags10et_interface_iic</text>
<text xml:space="preserve" text-anchor="middle" x="203.25" y="-106.5" font-family="Helvetica,sans-Serif" font-size="10.00">_read_cmd</text>
</a>
</g>
</g>
<!-- Node1&#45;&gt;Node7 -->
<g id="edge6_Node000001_Node000007" class="edge">
<title>Node1&#45;&gt;Node7</title>
<g id="a_edge6_Node000001_Node000007"><a xlink:title=" ">
<path fill="none" stroke="#63b8ff" d="M69.12,-171.6C85.87,-162.92 110.7,-150.47 133,-141 136.58,-139.48 140.29,-137.97 144.04,-136.49"/>
<polygon fill="#63b8ff" stroke="#63b8ff" points="145.18,-139.8 153.26,-132.94 142.67,-133.26 145.18,-139.8"/>
</a>
</g>
</g>
<!-- Node8 -->
<g id="Node000008" class="node">
<title>Node8</title>
<g id="a_Node000008"><a xlink:href="group__ags10et__interface__driver.html#gaa61bdafab886f6369c2fc93b866b3911" target="_top" xlink:title="interface iic bus write">
<polygon fill="white" stroke="#666666" points="257.38,-82 149.12,-82 149.12,-50 257.38,-50 257.38,-82"/>
<text xml:space="preserve" text-anchor="start" x="157.12" y="-68.5" font-family="Helvetica,sans-Serif" font-size="10.00">ags10et_interface_iic</text>
<text xml:space="preserve" text-anchor="middle" x="203.25" y="-56.5" font-family="Helvetica,sans-Serif" font-size="10.00">_write</text>
</a>
</g>
</g>
<!-- Node1&#45;&gt;Node8 -->
<g id="edge7_Node000001_Node000008" class="edge">
<title>Node1&#45;&gt;Node8</title>
<g id="a_edge7_Node000001_Node000008"><a xlink:title=" ">
<path fill="none" stroke="#63b8ff" d="M56.32,-171.77C69.21,-153.18 98.91,-113.7 133,-91 134.84,-89.78 136.74,-88.61 138.69,-87.49"/>
<polygon fill="#63b8ff" stroke="#63b8ff" points="140.15,-90.67 147.44,-82.98 136.95,-84.45 140.15,-90.67"/>
</a>
</g>
</g>
<!-- Node9 -->
<g id="Node000009" class="node">
<title>Node9</title>
<g id="a_Node000009"><a xlink:href="group__ags10et__interface__driver.html#gadfb584ed2d2cd797e3d0879d1fe34e55" target="_top" xlink:title="interface iic bus write command">
<polygon fill="white" stroke="#666666" points="257.38,-32 149.12,-32 149.12,0 257.38,0 257.38,-32"/>
<text xml:space="preserve" text-anchor="start" x="157.12" y="-18.5" font-family="Helvetica,sans-Serif" font-size="10.00">ags10et_interface_iic</text>
<text xml:space="preserve" text-anchor="middle" x="203.25" y="-6.5" font-family="Helvetica,sans-Serif" font-size="10.00">_write_cmd</text>
</a>
</g>
</g>
<!-- Node1&#45;&gt;Node9 -->
<g id="edge8_Node000001_Node000009" class="edge">
<title>Node1&#45;&gt;Node9</title>
<g id="a_edge8_Node000001_Node000009"><a xlink:title=" ">
<path fill="none" stroke="#63b8ff" d="M52.77,-171.87C61.55,-146.23 88.07,-78.18 133,-41 134.92,-39.41 136.95,-37.92 139.06,-36.52"/>
<polygon fill="#63b8ff" stroke="#63b8ff" points="140.52,-39.72 147.44,-31.7 137.03,-33.65 140.52,-39.72"/>
</a>
</g>
</g>
</g>
</svg>
